<svg xmlns="http://www.w3.org/2000/svg" width="421" height="421"><path d="M274.375 77.938A444.008 444.008 0 0 1 279 82l2.477 1.977C298.085 97.705 305.605 118.035 308 139c.441 5.245.833 10.495 1.09 15.752.38 6.06 1.125 9.489 4.91 14.248.375 2.75.375 2.75 0 5l-2 2c-.571 2.227-.571 2.227-.938 4.75-.58 3.25-1.12 5.36-2.687 8.313-1.882 4.02-1.637 7.571-1.375 11.937l3.25-.75c3.75-.25 3.75-.25 6.125 1.438 5.373 7.646 2.995 19.854 1.55 28.6a686.625 686.625 0 0 1-1.269 6.911c-.77 3.815-.77 3.815-.656 7.801l2.52.332 3.293.48 3.269.458c3.027.757 4.11 1.248 5.918 3.73 3.03 9.087.847 20.77.344 30.227l-.305 6.004c-.177 3.464-.358 6.93-.539 10.394-.216 4.15-.431 8.301-.642 12.452-.13 2.57-.264 5.14-.4 7.71-1.695 13.939-1.695 13.939 2.73 26.4 6.711 9.581 8.8 21.086 11.125 32.375l.52 2.524.468 2.418.411 2.12c.38 3.131.305 6.224.288 9.376-23.683 1.362-47.39 1.148-71.103 1.134-6.018-.002-12.035 0-18.053.002-10.098.002-20.197 0-30.296-.006-11.605-.005-23.211-.003-34.817.002-10.038.005-20.076.005-30.114.003-5.963-.002-11.926-.002-17.889.001-47.405.023-47.405.023-68.728-1.136-.043-8.817-.043-8.817.734-12.262l.485-2.181.531-2.245.55-2.373c5.788-24.507 5.788-24.507 13.513-33.127 2.574-3.47 2.433-6.399 2.365-10.64-.01-.662-.018-1.324-.027-2.005-.114-6.916-.44-13.823-.807-20.73l-.305-6.032c-.141-2.768-.285-5.536-.43-8.304-.254-4.879-.503-9.757-.751-14.636a4990.25 4990.25 0 0 0-.4-7.756c-.807-15.736-.807-15.736.73-20.022 4.458-4.26 9.84-4.187 15.812-4.687-.494-4.937-1.131-9.752-2.063-14.625-1.66-9.839-2.658-20.297 2.063-29.375 2.986-1.493 5.709-1.118 9-1l2 1c-.282-6.34-1.418-9.68-5-15-.658-2.568-1.113-5.11-1.508-7.73-.405-2.535-.405-2.535-2.492-5.27.302-2.958.667-5.334 2-8h2l.12-2.161C113.725 135.224 115.936 108.82 136 88c1.953-1.734 3.965-3.36 6-5l2.188-2.375c32.635-30.46 95.824-29.756 130.187-2.688Z" fill="#A9AAAF"/><path d="M274.375 77.938A444.008 444.008 0 0 1 279 82l2.477 1.977C298.085 97.705 305.605 118.035 308 139c.441 5.245.833 10.495 1.09 15.752.38 6.06 1.125 9.489 4.91 14.248.375 2.75.375 2.75 0 5l-2 2c-.608 2.294-.608 2.294-1 4.875-.566 3.387-1.2 6.173-3 9.125l-2 1c-1.723 9.324-1.302 19.272-1.563 28.75l-.13 4.46c-.106 3.597-.208 7.194-.307 10.79h3c-.482 4.134-.989 7.955-2 12h-33l-1-4 3-1 1-2a588.838 588.838 0 0 1 7-3l2-2-.625-1.688C283 231 283 231 287 224h-20c1-2 1-2 4-3l-1-1-2.313 1.438C265 223 265 223 262 224v2c-4.18 2.09-9.447 1.433-14 1-4.29-2.323-6.761-5.689-9-10-.314-2.764-.193-5.204 0-8-2.648 2.578-4.944 4.916-7 8h-3l-2-3c-6.436-3.565-13.586-6.682-21-5-2.755 1.153-5.332 2.44-7.934 3.906C196 214 196 214 194 214l-2 4h-2a112.535 112.535 0 0 1-3-5 248.481 248.481 0 0 0-3-4l-.156 2.16c-.633 5.343-1.416 9.18-5.344 13.028-3.955 2.985-7.198 3.685-12.102 3.3-4.967-1.01-8.168-2.9-11.335-6.988-1.566-5.156-1.297-10.153-1.063-15.5l-2.313.938A110.556 110.556 0 0 1 146 208c-.802 1.874-.802 1.874-1.188 4.063l-.48 2.222L144 216l4 2v3l-12 3-1 4-4-3c.315 3.57 1.26 5.54 3.563 8.188C137 236 137 236 137 238h2v2h2v2h2v2h3v2c-8.67 1.167-17.274 1.097-26 1-2.781-12.461-2.132-25.74-2.063-38.438.006-1.617.01-3.235.014-4.853.011-3.903.028-7.806.049-11.709l-1.939-.894c-2.501-1.342-2.822-2.143-3.686-4.793l-.719-2.16L111 182l-1.125-3.625c-2.21-8.526-2.21-8.526-.938-11.75L110 165h2l.12-2.161C113.725 135.224 115.936 108.82 136 88c1.953-1.734 3.965-3.36 6-5l2.188-2.375c32.635-30.46 95.824-29.756 130.187-2.688Z" fill="#232323"/><path d="M205.699 156.684c3.268.003 6.536-.02 9.805-.045 62.744-.188 62.744-.188 79.075 13.704 8.924 10.405 6.227 35.063 5.421 47.657-.926 9.48-2.89 18.724-5 28h7l1-19h1v8h3c-.482 4.134-.989 7.955-2 12h-33l-1-4 3-1 1-2a588.838 588.838 0 0 1 7-3l2-2-.625-1.687C283 231 283 231 287 224h-20c1-2 1-2 4-3l-1-1-2.313 1.438C265 223 265 223 262 224v2c-4.18 2.09-9.447 1.433-14 1-4.29-2.323-6.761-5.689-9-10-.314-2.764-.193-5.204 0-8-2.648 2.578-4.944 4.916-7 8h-3l-2-3c-6.436-3.565-13.586-6.682-21-5-2.755 1.153-5.332 2.44-7.934 3.906C196 214 196 214 194 214l-2 4h-2a112.535 112.535 0 0 1-3-5 248.481 248.481 0 0 0-3-4l-.156 2.16c-.633 5.343-1.416 9.18-5.344 13.028-3.955 2.985-7.198 3.685-12.102 3.3-4.967-1.01-8.168-2.9-11.336-6.988-1.565-5.156-1.296-10.153-1.062-15.5l-2.313.938A110.556 110.556 0 0 1 146 208c-.802 1.874-.802 1.874-1.188 4.063l-.48 2.222L144 216l4 2v3l-12 3-1 4-4-3c.315 3.57 1.26 5.54 3.562 8.188C137 236 137 236 137 238h2v2h2v2h2v2h3v2c-8.67 1.167-17.274 1.097-26 1v-1h8l-.805-2.5c-6.245-20.424-7.281-42.293-3.445-63.312l.475-2.677c1.213-5.878 1.213-5.878 3.482-8.433 9.028-4.245 18.982-6.384 28.73-8.265l2.412-.469A275.22 275.22 0 0 1 167 159l3.567-.546c11.692-1.648 23.34-1.793 35.132-1.77Z" fill="#754C30"/><path d="M306 190c1.203 2.405 1.1 3.95 1.063 6.625l-.028 2.477L307 201l3.25-.75c3.75-.25 3.75-.25 6.125 1.438 5.373 7.646 2.995 19.854 1.55 28.6a686.625 686.625 0 0 1-1.269 6.911c-.77 3.815-.77 3.815-.656 7.801l2.52.332 3.293.48 3.269.458c3.027.757 4.11 1.248 5.918 3.73 3.798 11.395.571 27.143 0 39h-1l-.076-2.136c-.117-3.247-.24-6.493-.361-9.739l-.12-3.36c-.227-5.944-.575-11.833-1.244-17.746C328 254 328 254 328 251l-3.438 1.063c-5.545 1.28-10.836.777-16.445.218-4.562-.402-7.884-.041-12.117 1.719v-2l-15 1v-1l-3.5-.063-1.969-.035c-2.697.06-2.697.06-6.004.598-5.167.656-10.293.625-15.494.598l-3.246-.005c-2.316-.004-4.631-.01-6.947-.018-3.676-.013-7.351-.02-11.027-.024-9.133-.013-18.266-.037-27.4-.061-7.717-.02-15.434-.036-23.152-.046-3.601-.006-7.203-.019-10.804-.032-14.853-.033-14.853-.033-29.671.865-4.593.367-9.183.308-13.786.223v-2l-2.691.496c-5.719.817-11.484.61-17.246.566l-3.518-.013c-2.848-.012-5.697-.028-8.545-.049l1-2 23-1-1-3 27-1v-2h-3v-2h-2v-2h-2v-2h-2c-1.762-2.047-1.762-2.047-3.688-4.75l-1.949-2.672C130 228 130 228 130.293 225.672L131 224l4 2 1-3 12-2c-1.5-4-1.5-4-4-5-.313-2.188-.313-2.188 0-5 3.092-3.887 5.17-5.253 10-6l.113 2.414c.363 8.277.363 8.277 3.887 15.586 4.228 3.094 8.403 3.666 13.527 3.457 3.509-.648 5.588-1.845 8.133-4.324 2.673-4.255 2.95-9.214 3.34-14.133l7 7v3l2-1c.467-2.126.467-2.126.625-4.563l.227-2.503L193 208h1v6l2.309-1.313c11.665-6.29 11.665-6.29 18.691-4.687 4.11 1.45 8.062 3.134 12 5l2-3v7h3l.813-2.313c1.138-2.577 2.001-3.957 4.187-5.687h2l.297 2.012c.904 5.341 1.677 9.084 5.703 12.988 3.737 2.491 5.745 2.207 10.188 2.125l3.855-.055L262 226v-2c1.426-1.29 1.426-1.29 3.313-2.625l1.863-1.352C269 219 269 219 272 219l-1 3-3 1 3.14-.035 4.11-.028 2.066-.025c3.377-.016 6.457.032 9.684 1.088-.48 2.238-.996 3.994-2.125 6-1.067 2.44-.753 3.541.125 6-4.202 2.972-8.22 5.088-13 7l1 2-1 2h33l1-8c.302-1.34.615-2.68 1-4h-3c-.025-4.338-.043-8.675-.055-13.013-.005-1.47-.012-2.94-.02-4.41-.108-18.544-.108-18.544 1.075-26.577l1-1Z" fill="#E1DDDB"/><path d="m241.563 138.75 2.03.238c9.762 1.171 18.986 3.274 28.407 6.012v3l3.313.188c5.728.702 10.571 3.27 15.687 5.812l3.375 1.625c2.62 1.372 5.174 2.717 7.625 4.375v2h2v2h2c1.625 1.375 1.625 1.375 3 3v2l3-1 2 1c.125 2.375.125 2.375 0 5l-2 2c-.608 2.294-.608 2.294-1 4.875-.566 3.387-1.2 6.173-3 9.125l-2 1-.168 3.067a29445.58 29445.58 0 0 1-.902 16.42c-.301 5.505-.61 11.01-.93 16.513l-.128 2.23c-.121 2.068-.247 4.136-.376 6.204l-.217 3.56c-.229 2.462-.582 4.643-1.279 7.006h-7c.447-4.41.912-8.768 1.754-13.121 4.063-21.247 2.966-41.852-1.754-62.879-23.109-7.907-46.762-12.047-71.21-12.238l-3.148-.03c-3.34-.024-6.678-.037-10.017-.044l-3.451-.008c-17.735-.005-34.748.789-52.174 4.32l-2.657.518c-13.666 2.16-13.666 2.16-25.343 8.482-5.515 21.815-5.177 42.997-1 65l.645 3.46c.425 2.186.884 4.364 1.355 6.54h-8c-3.413-11.65-2.129-25.402-2.063-37.438.006-1.617.01-3.235.014-4.853.011-3.903.028-7.806.049-11.709l-1.939-.894c-2.501-1.342-2.822-2.143-3.686-4.793l-.719-2.16L111 182l-1.125-3.625c-2.21-8.526-2.21-8.526-.938-11.75L110 165h2l1-13 6 1c.25 3.313.25 3.313 0 7-2 1.938-2 1.938-4 3 1.618-.93 3.237-1.858 4.86-2.781 1.492-.85 2.981-1.704 4.468-2.563l2.36-1.344 2.199-1.261C131 154 131 154 133.082 153.543c2.37-.67 3.215-1.8 4.918-3.543 6.912-3.561 14.85-5.017 22.375-6.75l2.92-.675 2.79-.622 2.502-.557c2.513-.412 4.871-.465 7.413-.396v-2c21.466-3.954 43.991-2.849 65.563-.25Z" fill="#0D0C0B"/><path d="M93 335h1l.148 3.863A1037.291 1037.291 0 0 0 96 371.688l.251 3.561a304066802.634 304066802.634 0 0 1 .468 6.281c.21 2.6.21 2.6 1.281 5.47l3.22-.007c9.992-.02 19.984-.035 29.976-.045 5.138-.005 10.275-.012 15.413-.023 4.953-.011 9.907-.017 14.86-.02 1.895-.002 3.79-.005 5.684-.01 2.643-.008 5.287-.009 7.93-.009l2.398-.01c5.405.01 5.405.01 6.519 1.124 1.873.16 1.873.16 4 .125l2.188.008c1.833.064 1.833.064 2.812-1.133a73.908 73.908 0 0 1 4.66-.093l3.054.013 3.38.03 3.538.019c2.546.014 5.092.03 7.638.048 4.03.027 8.061.044 12.092.059a239674.063 239674.063 0 0 1 6.234.023c9.386.036 18.772.082 28.159.148 6.326.044 12.653.075 18.98.089 3.347.008 6.694.025 10.041.056 3.742.034 7.483.043 11.224.046l3.337.049c6.732-.027 10.864-1.054 16.663-4.487l3-1 2-44c4.31 1.437 5.254 3.975 7.453 7.824 4.561 9.365 6.776 19.589 8.86 29.738l.52 2.523.468 2.419.411 2.12c.38 3.131.305 6.224.288 9.376-23.683 1.362-47.39 1.148-71.103 1.134-6.018-.002-12.035 0-18.053.002-10.098.002-20.197 0-30.296-.006-11.605-.005-23.211-.003-34.817.002-10.038.005-20.076.005-30.114.003-5.963-.002-11.926-.002-17.889.001-47.405.023-47.405.023-68.728-1.136-.043-8.817-.043-8.817.734-12.262l.485-2.181.531-2.245.55-2.373C79.56 359.13 83.42 345.853 93 335Z" fill="#68696D"/><path d="M193 208h1v6l2.309-1.313c11.665-6.29 11.665-6.29 18.691-4.687 4.11 1.45 8.062 3.134 12 5l2-3v7h3l.813 1.813c1.172 2.16 2.38 3.545 4.187 5.187l-5 1c.581 5.599.581 5.599 2 11l3 1c1.02.98 2.021 1.979 3 3l2 1v2l3 1-1 2-5.86-.977c-2.15-.213-2.15-.213-3.74.961-3.57 1.512-7.122 1.28-10.935 1.246h-2.527c-1.766-.004-3.532-.012-5.298-.024-2.669-.018-5.337-.02-8.005-.02-7.916-.017-15.761-.084-23.637-.974-2.16-.265-2.16-.265-4.998-.212 1.34-3.136 2.562-4.564 5.375-6.438 5.176-4.16 6.142-10.354 7.625-16.562l-2 1c-2 .04-4 .043-6 0 3.75-3 3.75-3 6-3v-3l2-1c.467-2.126.467-2.126.625-4.563l.227-2.503L193 208Z" fill="#D9AC8E"/><path d="M150 205h4l.113 2.414c.363 8.277.363 8.277 3.887 15.586 4.228 3.094 8.403 3.666 13.527 3.457 3.509-.648 5.588-1.845 8.133-4.324 2.673-4.255 2.95-9.214 3.34-14.133 7 7 7 7 7.125 10.125L190 221l-4 2h6l1-2c-1.772 9.195-3.754 15.514-11.258 21.52-1.856 1.38-1.856 1.38-2.742 3.48l1.793-.254c4.306-.555 7.963-.978 12.207.254v1h-57v-1h10v-2h-3v-2h-2v-2h-2v-2h-2c-1.762-2.047-1.762-2.047-3.688-4.75l-1.949-2.672C130 228 130 228 130.293 225.672L131 224l4 2 1-3 12-2c-1.5-4-1.5-4-4-5-.313-2.188-.313-2.188 0-5 2.438-2.75 2.438-2.75 5-5l1-1Z" fill="#E1C1AD"/><path d="M237 209h2l.297 2.012c.904 5.341 1.677 9.084 5.703 12.988 3.737 2.491 5.745 2.207 10.188 2.125l3.855-.055L262 226v-2c1.426-1.29 1.426-1.29 3.313-2.625l1.863-1.352C269 219 269 219 272 219l-1 3-3 1 3.14-.035 4.11-.028 2.066-.025c3.377-.016 6.457.032 9.684 1.088-.48 2.238-.996 3.994-2.125 6-1.067 2.44-.753 3.541.125 6-4.202 2.972-8.22 5.088-13 7l1 2-1 2h-40c4-3 4-3 6.14-3.074L244 245c-.656-1.983-.656-1.983-2-4l-2.375-.938c-3.977-1.61-5.658-4.515-7.875-8.062-.91-2.428-.893-4.428-.75-7l5-2-2-1.188c-2-1.812-2-1.812-2.563-4.125.833-3.976 2.732-5.788 5.563-8.687Z" fill="#E1C1AD"/><path d="M290 200c2 1 2 1 3.117 3.043 1.13 3.785 1.099 7.363 1.008 11.27l-.027 2.244c-.024 1.814-.06 3.629-.098 5.443l4-1c.461 8.608-1.272 16.615-3 25h7l1-19h1v8h3c-.482 4.134-.989 7.955-2 12h-33l-1-4 3-1 1-2a588.838 588.838 0 0 1 7-3l2-2-.625-1.688C283 231 283 231 287 224h-20c1-2 1-2 4-3l-1-1-2.313 1.438C265 223 265 223 262 224v2c-4.18 2.09-9.447 1.433-14 1-4.303-2.331-6.726-5.695-9-10-.588-2.996-.865-5.952-1-9 7.055-5.06 7.055-5.06 11-4.813l2 .813-1 5h-6l.875 3.813.492 2.144c.613 2.32.613 2.32 2.633 5.043 2.295.479 2.295.479 4.875.375l2.617.023c3.016-.479 4.382-1.214 6.508-3.398.933-3.988.625-7.84-1.313-11.438-1.809-1.758-1.809-1.758-4.687-3.562 6.199-.38 10.448.165 16 3v2l1.875.313C276 208 276 208 278 211c.376 3.757.164 4.754-2 8 1.98.027 3.958.046 5.938.063l3.34.035c2.636.215 2.636.215 3.722-1.098.099-1.435.13-2.874.125-4.313l.008-2.363c-.054-2.314-.054-2.314-.7-4.445-.628-2.723.404-4.417 1.567-6.879Z" fill="#C9A893"/><path d="M93 335h1l.076 1.877c.117 2.853.24 5.707.362 8.56l.119 2.952c.19 4.36.412 8.684.943 13.017.705 5.866.855 11.756 1.063 17.656l.13 3.49c.106 2.816.208 5.632.307 8.448l2 1H74c0-9.01 0-9.01.734-12.262l.485-2.181.531-2.245.55-2.373C79.56 359.13 83.42 345.853 93 335Z" fill="#1F1F1F"/><path d="M327 338c4.31 1.437 5.254 3.975 7.453 7.824 4.561 9.365 6.776 19.589 8.86 29.738l.52 2.523.468 2.419.411 2.12c.376 3.104.288 6.249.288 9.376h-24l3-5c1.456-4.854 1.328-10.08 1.535-15.113l.13-2.938c.136-3.087.267-6.174.397-9.262l.276-6.29c.225-5.133.445-10.265.662-15.397Z" fill="#1D1D1D"/><path d="M117 192h1c.965 9.505.982 18.775.563 28.313-.054 1.337-.107 2.675-.159 4.013-.128 3.225-.263 6.45-.404 9.674h-3l.5 1.875c.697 4.358.777 8.72.5 13.125-1 1-1 1-2.87 1.066l-2.427-.074-2.656-.05c-1.85-.044-3.698-.096-5.547-.157-5.02-.08-8.404-.072-12.5 3.215 1.472-4.66 1.472-4.66 3.75-6.125 2.555-.993 4.771-1.285 7.5-1.5l2.703-.227L106 245c-.494-4.937-1.131-9.752-2.063-14.625-1.66-9.839-2.658-20.297 2.063-29.375 2.986-1.493 5.709-1.118 9-1l2 1v-9Z" fill="#DBDBDC"/><path d="M218 303c-.628 2.929-1.586 5.361-3 8l2.813-.125C221 311 221 311 224 313v3h-2c-.54 5.449-.54 5.449 1.625 10.125L225 328c-.786 3.851-1.774 6.688-5 9-3.398.434-3.398.434-7.375.438l-3.96.058c-4.15-.562-5.783-1.516-8.665-4.496-.813-2.75-.813-2.75-1-5h-2c-.769-10.71-.769-10.71 1.938-15.25 4.12-2.354 7.427-2.204 12.062-1.75l.25-2.875c.75-3.125.75-3.125 2.688-4.5C216 303 216 303 218 303Z" fill="#C9CACF"/><path d="M276.129 173.375c2.087 1.69 3.663 3.208 4.871 5.625.04 2.333.043 4.667 0 7-5.262-.345-9.482-1.07-14.375-3.063-7.731-2.943-14.35-3.127-22 .125l-2.336 1.16c-2.87.975-4.442.764-7.289-.222-2.43-3.644-2.162-5.712-2-10 13.65-8.997 29.288-9.564 43.129-.625Z" fill="#281B10"/><path d="m167.063 167.625 2.29-.043c6.418.055 11.746 1.46 17.147 5.106 2.309 3.559 1.906 6.115 1.5 10.312l-2 2c-4.286-.214-7.016-.466-10.809-2.523-6.286-2.909-14.415-2.646-20.992-.61-2.113.974-4.149 2.035-6.199 3.133-2.938.875-2.938.875-5 1-2-2-2-2-2.625-4.688.843-4.465 2.809-6.018 6.316-8.765 6.506-4.36 12.704-4.817 20.371-4.922Z" fill="#261910"/><path d="M193 208h1v6l2.309-1.313c11.665-6.29 11.665-6.29 18.691-4.687 4.11 1.45 8.062 3.134 12 5l2-3v7h3l.813 1.813c1.231 2.515 1.231 2.515 4.187 5.187l-9-1-1 4a596.985 596.985 0 0 1-3.813-1.375l-2.144-.773C219 224 219 224 216 222v-2c-6.855.028-11.03 1.039-16.21 5.625-1.94 1.49-3.404 1.955-5.79 2.375l-2-5-2 1c-2 .04-4 .043-6 0 3.75-3 3.75-3 6-3v-3l2-1c.467-2.126.467-2.126.625-4.563l.227-2.503L193 208Z" fill="#C09274"/><path d="m323 382 2 2c-3.343 3.542-6.21 6.325-11.22 6.738-1.594.025-3.19.018-4.784-.016l-2.679.015c-2.95.01-5.898-.023-8.848-.056-2.12-.002-4.238 0-6.358.003-5.745.002-11.49-.034-17.236-.076-6.007-.037-12.014-.04-18.02-.048a9331.337 9331.337 0 0 1-34.116-.128c-12.948-.067-25.896-.1-38.844-.13-26.632-.063-53.263-.168-79.895-.302l-1-2c8.523-1.21 17.006-1.146 25.594-1.133l4.797-.003c3.331-.001 6.663 0 9.995.006 4.278.005 8.557.002 12.835-.004 3.293-.004 6.585-.002 9.877 0 1.58 0 3.158 0 4.737-.002 2.195-.003 4.39.001 6.585.007l3.787.002C183 387 183 387 184 388c1.873.16 1.873.16 4 .125l2.188.008c1.833.064 1.833.064 2.812-1.133a73.908 73.908 0 0 1 4.66-.093l3.054.013 3.38.03 3.538.019c2.546.014 5.092.03 7.638.048 4.03.027 8.061.044 12.092.059l4.14.015 2.094.008c9.386.036 18.772.082 28.159.148 6.326.044 12.653.075 18.98.089 3.347.008 6.694.025 10.041.056 3.742.034 7.483.043 11.224.046l3.337.049c6.54-.026 12.747-.57 17.663-5.487Z" fill="#7C7D82"/><path d="M131 198h3v2l2 1-1 4h-4v2l3 1-1 1a74.456 74.456 0 0 0-.063 4.563l.028 2.503L133 218l6-1-1-2 6-2v3l4 2v3l-12 3-1 4-4-3c.315 3.57 1.26 5.54 3.563 8.188C137 236 137 236 137 238h2v2h2v2h2v2h3v2c-8.67 1.167-17.274 1.097-26 1v-1h8l-.84-2.5c-2.912-9.285-3.909-17.82-4.16-27.5l1 3c2.015.733 2.015.733 4 1l-.105-2.527c-.175-7.241.373-12.758 3.105-19.473Z" fill="#976D4F"/><path d="M222.09 249.871c7.827.005 15.654.002 23.481-.003 7.644-.005 15.289-.005 22.933-.003 4.526.002 9.051.002 13.577-.001 4.222-.003 8.444-.001 12.666.005 1.539 0 3.078 0 4.617-.002 7.929-.01 15.762.097 23.636 1.133-4.802 2.75-9.328 1.802-14.625 1.277-4.643-.385-7.976-.12-12.375 1.723v-2l-15 1v-1l-3.5-.063-1.969-.035c-2.697.06-2.697.06-6.004.598-5.167.656-10.293.625-15.494.598l-3.246-.005c-2.316-.004-4.631-.01-6.947-.018-3.676-.013-7.351-.02-11.027-.024-9.133-.013-18.266-.037-27.4-.061-7.717-.02-15.434-.036-23.152-.046-3.601-.006-7.203-.019-10.804-.032-14.853-.033-14.853-.033-29.671.865-4.593.367-9.183.308-13.786.223v-2l-2.691.496c-5.719.817-11.484.61-17.246.566l-3.518-.013c-2.848-.012-5.697-.028-8.545-.049l1-2c41.69-1.275 83.385-1.155 125.09-1.129Z" fill="#CED2D8"/><path d="m255.875 197.625 2.135.024c5.322.146 9.336.786 13.99 3.351l1 3-14-1 4 5c.76 3.106.648 5.873 0 9-2.192 2.995-3.795 3.78-7.418 4.441-2.702.188-4.937.148-7.582-.441-3.138-3.138-3.924-4.967-4.25-9.375L244 209l6-1v-4c-7.602.38-13.036 5.622-18 11 1.286-5.027 3.17-7.544 7-11l1.438-1.625c4.629-4.074 9.467-4.87 15.437-4.75Z" fill="#25211C"/><path d="M178.563 200.125c3.374 2.533 5.926 5.5 8.437 8.875h-3l-2-2c-2.069-.643-2.069-.643-4-1l.14 2.047c.298 7.354.298 7.354-2.015 10.516-3.89 2.63-6.39 2.91-11.125 2.437-3.438-2-3.438-2-6-5-.502-2.856-.298-5.07 0-8h5c.59-1.946.59-1.946 1-4l-1-1c-2.357.09-4.712.247-7.063.438l-3.91.308L150 204v-2c8.444-4.414 19.813-7.094 28.563-1.875Z" fill="#262320"/><path d="M290 200c2 1 2 1 3.117 3.043 1.13 3.785 1.099 7.363 1.008 11.27l-.027 2.244c-.024 1.814-.06 3.629-.098 5.443l4-1c.461 8.608-1.272 16.615-3 25h7l1-19h1v8h3c-.938 8.036-.938 8.036-2 12-9.04.172-17.989-.367-27-1 1.38-4.517 3.359-6.126 7-9 2.073-2.858 2.073-2.858 3.813-6l1.832-3.125c1.64-2.948 1.64-2.948 1.355-6.875l-1.703.559c-2.68.515-4.412.162-7.047-.496l-2.422-.59L279 220v-1l1.934.035 2.503.028 2.497.035c2.058.135 2.058.135 3.066-1.098.099-1.435.13-2.874.125-4.313l.008-2.363c-.054-2.314-.054-2.314-.7-4.445-.628-2.723.404-4.417 1.567-6.879Z" fill="#896B59"/><path d="M277 145v2c-4.028-.739-7.91-1.803-11.848-2.922-7.779-2.124-15.58-3.393-23.59-4.328l-2.122-.254c-26.603-3.114-55.3-3.796-81.17 3.953-2.493.605-4.714.646-7.27.551 1-2 1-2 3.476-2.993 7.879-2.406 15.617-4.073 23.774-5.195l3.576-.504c31.245-4.27 65.975-3.387 95.174 9.692Z" fill="#393939"/><path d="M306 190c1.203 2.405 1.1 3.95 1.063 6.625l-.028 2.477L307 201l3.25-.75c3.75-.25 3.75-.25 6.125 1.438 3.023 4.302 2.786 8.449 2.813 13.625l.042 3.863c-.292 4.852-.697 9.29-4.23 12.824l-.688-3.313c-.973-3.784-.973-3.784-3.812-5.625-2.354-1.192-2.354-1.192-4.5-1.062l-2 4c-.228-27.573-.228-27.573 1-35l1-1Z" fill="#86593D"/><path d="m164 202 2 2c-.375 2.125-.375 2.125-1 4l-5 1c-.418 3.332-.418 3.332 0 7 2.759 3.26 4.301 3.939 8.563 4.313 3.563-.236 3.563-.236 7.437-1.313l2-13 5 1c.568 10.837.568 10.837-3 15-2.745 3.013-4.355 4.685-8.367 5.453-6.012.256-9.877-.765-14.633-4.453-4.13-5.33-3.28-11.578-3-18l-2-1c4.152-1.582 7.547-2.405 12-2Z" fill="#A68B71"/><path d="M256 202c1.437-.054 2.875-.093 4.313-.125l2.425-.07C265 202 265 202 268 204c.968 2.905 1.196 4.966 1.25 8l.078 2.625C269 217 269 217 267.715 218.738c-2.644 1.945-5.563 2.489-8.715 3.262l-.375 1.938L258 226c-3.21 1.605-6.517 1.476-10 1-4.21-2.487-6.728-5.7-9-10-.588-2.996-.865-5.952-1-9 7.055-5.06 7.055-5.06 11-4.813l2 .813-1 5h-6l.875 3.813.492 2.144c.613 2.32.613 2.32 2.633 5.043 2.295.479 2.295.479 4.875.375l2.617.023c3.016-.479 4.382-1.214 6.508-3.398.933-3.988.625-7.84-1.313-11.438-1.809-1.758-1.809-1.758-4.687-3.562Z" fill="#AF937B"/><path d="M323 384h2c-.334 3.006-.79 4.728-2.657 7.143-3.037 2.407-4.73 2.347-8.577 2.327l-3.823.009-4.123-.053c-1.414-.005-2.83-.008-4.244-.01-2.964-.008-5.928-.028-8.892-.06-3.788-.039-7.576-.057-11.365-.067-3.624-.01-7.25-.03-10.874-.05l-2.08-.011c-1.958-.012-3.915-.031-5.872-.051l-3.369-.03C256 393 256 393 253.09 392.502c-3.684-.598-7.302-.677-11.023-.707l-2.338-.03a2906.5 2906.5 0 0 0-7.596-.081l-5.288-.063a9553.73 9553.73 0 0 0-13.878-.153c-4.726-.05-9.452-.106-14.178-.161-9.263-.108-18.526-.21-27.789-.307v-1l149-1 2-4 1-1Z" fill="#6C6D71"/><path d="M116.813 202.938C119 205 119 205 119.347 207.035c.03 2.682-.121 5.292-.348 7.965l-.242 3.102A377.712 377.712 0 0 1 118 226c-2-3-2-3-2-5-3.555 1.921-5.781 3.62-8 7l-2 3c-2.557-9.748-3.724-19.681 1-29 3.439-1.72 6.318-.227 9.813.938Z" fill="#83624A"/><path d="M118 227h1l1 22 24 1v1l-47 1c-1.05 3.148-1.28 5.757-1.5 9.063l-.254 3.488c-.154 2.164-.308 4.328-.46 6.492l-.224 2.707-.183 2.422L94 278l-2 1c-.656 2.527-.656 2.527-1 5h-1l-1-31c7.875-4.5 7.875-4.5 11.84-4.39l2.53.038 2.567.102 2.65.055c2.139.046 4.276.118 6.413.195.097-5.447.129-10.639-1-16l4 1v-7Z" fill="#BEBEC1"/><path d="m302 196 1 4h2c-.261 5.908-.528 11.817-.8 17.725l-.27 6.029c-.128 2.89-.26 5.779-.395 8.668l-.117 2.721-.12 2.547-.102 2.234c-.2 2.11-.629 4.038-1.196 6.076h-7c.54-5.236 1.203-10.399 2.104-15.584 1.463-8.463 2.311-16.772 2.517-25.36.119-3.846.196-5.782 2.379-9.056Z" fill="#1D1510"/><path d="M306 221c7.469 2.826 7.469 2.826 9.188 6.625L316 230h1l-1 15 9 1v1h-12l1-9-3 9-5-1c-.143-7.429-.143-7.429 1-11h-3c-.369-9.41-.369-9.41 2-14Z" fill="#F0ECE8"/><path d="M121 200h1l.136 1.95c.923 12.89 2.197 25.402 4.864 38.05.344 1.998.68 3.998 1 6h-8c-3.948-13.7-2.109-29.896-2-44h3v-2Z" fill="#281A0F"/><path d="m323 382 2 2c-2.778 3.272-5.368 5.67-9.659 6.537-3.249.16-6.45.14-9.702.052l-3.727-.027c-3.356-.03-6.71-.087-10.065-.156-3.512-.065-7.025-.097-10.538-.132-6.644-.071-13.288-.174-19.931-.287-7.567-.128-15.134-.221-22.702-.312-15.56-.187-31.118-.416-46.676-.675l1-2 1.867.011c15.016.089 30.032.155 45.048.196 7.262.02 14.523.049 21.785.095 6.331.04 12.663.065 18.994.074 3.35.006 6.7.02 10.051.047 3.747.029 7.493.033 11.24.031l3.34.044c6.54-.035 12.759-.582 17.675-5.498Z" fill="#83848A"/><path d="M218.445 209.36A199.297 199.297 0 0 1 228 214v3c-7.282 1.255-7.282 1.255-10.813 0-3.79-1.19-6.62-.997-10.562-.625l-3.773.336L200 217v-2h-3v6h-3v-7c8.635-4.909 14.844-8.429 24.445-4.64Z" fill="#A77D61"/><path d="M116 221c2.248 4.497 2.167 8.079 2 13h-3l.5 1.938c.66 4.038.58 7.98.5 12.062-2.313-.438-2.313-.438-5-2-1.523-2.874-2.266-5.843-3-9l-.613-2.348c-.68-3.441-.947-5.641.789-8.773C112.132 221 112.132 221 116 221Z" fill="#EDE9E5"/><path d="m164 202 2 2c-.375 2.125-.375 2.125-1 4l-5 1c-.516 5.115-.516 5.115 1.938 9.438 4.113 2.098 7.534 1.917 12.062 1.562l-1 2c-3.02.52-3.02.52-6.813.813l-3.769.332c-3.673-.156-4.92-.514-7.418-3.145-1.095-3.285-1.1-5.737-1.063-9.188l.028-3.292L154 205l-2-1c4.152-1.582 7.547-2.405 12-2Z" fill="#614F3F"/><path d="m267 204 5 1v2l1.875.313C276 208 276 208 278 211c.5 2.375.5 2.375 0 5-1.852 1.976-3.794 3.391-6 5l-2-2-2.313 1.938C265 223 265 223 262 224v2l-6 1c1.063-2.875 1.063-2.875 3-6 3.109-1.2 5.662-2 9-2 .027-1.937.046-3.875.063-5.813l.035-3.269c.038-2.983.038-2.983-1.098-5.918Z" fill="#B9B7B4"/><path d="M97 251h87v1c-9.218.625-18.35 1.054-27.594.969-4.704.043-9.363.432-14.05.808-4.79.318-9.56.311-14.356.223v-2l-2.691.496c-5.719.817-11.484.61-17.246.566l-3.518-.013c-2.848-.012-5.697-.028-8.545-.049l1-2Z" fill="#C7C8CF"/><path d="M150 205h4l1 14-4-2-1 4h2v2l2 1-2.117-.035-2.758-.028-2.742-.035c-2.4-.064-2.4-.064-4.383 1.098v-2l-2-1 8-1c-1.309-3.122-1.309-3.122-4-5-.313-2.188-.313-2.188 0-5 2.438-2.75 2.438-2.75 5-5l1-1Z" fill="#BBB7B5"/><path d="M132 231a141.4 141.4 0 0 1 5 5v2h2v2h2v2h2v2h3v2c-8.67 1.167-17.274 1.097-26 1v-1h10v-2.813c0-4.598.453-7.835 2-12.187Z" fill="#A98469"/><path d="M306 190c1.203 2.405 1.1 3.95 1.063 6.625l-.028 2.477L307 201l3.25-.75c3.75-.25 3.75-.25 6.125 1.438 3.048 4.338 2.76 8.47 2.75 13.687l.008 3.898c-.12 3.344-.493 6.448-1.133 9.727h-1v-22l-8 1v2h-2v2h-2c-1.194-2.388-1.053-3.666-.914-6.316l.133-2.565.156-2.681.133-2.694c.363-6.615.363-6.615 1.492-7.744Z" fill="#DCCBBD"/><path d="m255.875 197.625 2.135.024c5.322.146 9.336.786 13.99 3.351l1 3c-7.496-.89-7.496-.89-10.563-1.563-7.494-1.345-14.223-.095-20.648 3.958-3.541 2.6-6.803 5.37-9.789 8.605 1.286-5.027 3.17-7.544 7-11l1.438-1.625c4.629-4.074 9.467-4.87 15.437-4.75Z" fill="#281B12"/><path d="M111.375 201.188c5.332 1.65 5.332 1.65 7.625 3.812.836 5.316.102 10.767-1 16-2.653-1.326-3.211-2.853-4.625-5.438l-1.352-2.433C111 211 111 211 111 209l-5-1c-.188-2.375-.188-2.375 0-5 3-2 3-2 5.375-1.813Z" fill="#CC9E7D"/><path d="M188.055 135.77h3.347c2.314.004 4.628.012 6.943.024 3.541.019 7.082.02 10.624.02 2.258.005 4.515.011 6.773.018l3.198.003 2.985.02 2.612.011c2.569.14 4.956.57 7.463 1.134v1l-3.291-.048c-35.58-.825-35.58-.825-70.44 5.497-2.492.605-4.713.646-7.269.551 1-2 1-2 3.555-3l3.32-1 3.242-1c8.977-2.435 17.656-3.294 26.938-3.23Z" fill="#2E2E2E"/><path d="M120 175h2c.054 1.937.093 3.875.125 5.813l.07 3.269C122 187 122 187 120 190c-.24 2.057-.24 2.057-.125 4.188L120 198h-2v-6l-1.875-.75c-2.573-1.513-3.042-2.503-4.125-5.25-.195-2.36-.195-2.36-.125-4.75l.055-2.422L112 177h3v2c1.985-.267 1.985-.267 4-1l1-3Z" fill="#11100E"/><path d="M131 198h3v2l2 1-1 4h-4v2l3 1-1 1a74.456 74.456 0 0 0-.063 4.563l.028 2.503L133 218l6-1-1-2 6-2v3l3 1-1 3c-2.646.027-5.292.047-7.938.063l-2.287.025A182.68 182.68 0 0 1 130 220c-2.243-2.243-1.771-6.762-2.012-9.766.017-4.504 1.189-8.154 3.012-12.234Z" fill="#8B6C56"/><path d="M131 224c2.5 1.375 2.5 1.375 5 3v2h2l1 3a90.223 90.223 0 0 0 4 4l-2 1v2l1.898.586 2.477.789 2.46.773C150 242 150 242 152 244c-1.082 1.488-1.082 1.488-3 3-3.137.293-3.137.293-6.688.188l-3.574-.083L136 247v-1h10v-2h-3v-2h-2v-2h-2v-2h-2c-1.762-2.047-1.762-2.047-3.688-4.75l-1.949-2.672C130 228 130 228 130.293 225.672L131 224Z" fill="#CFAF99"/><path d="M178.563 200.125c3.374 2.533 5.926 5.5 8.437 8.875-3.58 0-4.23-.746-7-2.875-5.092-3.474-9.815-5.047-16-5.125-2.73.548-5.208 1.288-7.809 2.273C154 204 154 204 150 204v-2c8.444-4.414 19.813-7.094 28.563-1.875Z" fill="#291B13"/><path d="M237 209h2l.297 2.012c1.384 8.174 4.026 11.98 10.703 16.988-3 2-3 2-5.188 1.625L243 229l2-2-2.59-1.277-3.347-1.66-3.34-1.653C233 221 233 221 232 220c-.455-2.657-.406-4.354 1.047-6.664 1.328-1.649 1.328-1.649 3.953-4.336Z" fill="#DEC4B2"/><path d="M244 209h6l-1 3 1-1 2 4 3-2v2l3-1 1 3 3-1 1-2c-.364 2.635-.752 3.77-2.734 5.602-3.882 2.396-7.867 2.297-12.266 1.398-3.138-3.138-3.924-4.967-4.25-9.375L244 209Z" fill="#2E2A22"/><path d="M228 210h1v7h3l.813 1.813c1.231 2.515 1.231 2.515 4.187 5.187l-9-1-1 4c-4.677-1.477-4.677-1.477-6.313-4.125L220 221h-2v-5l7 2 1-2 2 1v-7Z" fill="#B88968"/><path d="M291 227c1.324 4.046.471 6.78-.625 10.781-.416 2.462-.243 3.89.625 6.219l2 2h-15c2-5 2-5 4.25-6.688 4.036-3.393 6.212-7.742 8.75-12.312Z" fill="#A97C5E"/><path d="m261 139.313 2.328.646c4.742 1.35 9.182 3.005 13.672 5.041v2c-3.851-.699-7.503-1.751-11.25-2.875-10.976-3.122-22.436-3.96-33.75-5.125v-1c2.02-.17 4.041-.336 6.063-.5l3.41-.281c7.092-.44 12.755.11 19.527 2.094Z" fill="#303030"/><path d="M120 213h1c.734 5.692 1.067 11.099.84 16.836.004 2.462.004 2.462 2.16 5.164.414 2.7.414 2.7.625 5.688l.227 3.011L125 246h-5c-1.188-4.319-1.383-8.545-1.625-13l-.156-2.445-.133-2.368-.124-2.144c.04-2.172.465-3.953 1.038-6.043.35-2.33.686-4.664 1-7Z" fill="#1A1711"/><path d="M257 194c6.75.875 6.75.875 9 2v2l2.082.445c7.421 1.848 7.421 1.848 9.98 5.493L279 207l.75 2.25C280 211 280 211 279 213c-1.5-1.375-1.5-1.375-3-3v-2l-4-1v-2l-2-1 2-1v-2l-2.875-.438C266 200 266 200 264 199c-2.371-.23-4.747-.411-7.125-.563l-3.883-.253L250 198v-1l7-2v-1Z" fill="#5E4535"/><path d="M216 154h8v2l3.875-.254 5.125-.309 2.543-.17c13.514-.785 13.514-.785 17.457 2.296l1 1.437-3.031-.184c-15.979-.922-31.972-1.355-47.969-1.816v-1h13v-2Z" fill="#190A03"/><path d="m275 217 1 2c2.902.735 2.902.735 6.313 1.188l3.488.542c2.81.237 4.574.184 7.199-.73l-1 3c-8.343 1.192-16.593 1.093-25 1l1-2 2.438-.375c2.722-.35 2.722-.35 3.875-2.688L275 217Z" fill="#A0826E"/><path d="m251 204-1 5h-6l.938 3.875.527 2.18c.483 2.004.483 2.004 1.535 3.945h-3v-2l-4-1-1-9c7.286-4.714 7.286-4.714 12-3Z" fill="#62503D"/><path d="M317 209h1c.136 6.969.265 14.124-1 21l-2 2-.688-3.25c-1.442-4.122-2.731-5.394-6.312-7.75 2.313-2.5 2.313-2.5 5-5h3l1-7Z" fill="#AC907B"/><path d="m218.063 209 1.937 1v4c-1.938.563-1.938.563-4 1l-1-1c-2.751-.032-5.489.068-8.238.16-2.816-.163-4.375-.714-6.762-2.16 5.803-4.449 10.97-5.316 18.063-3Z" fill="#88634A"/><path d="M128 208h1l1 11c2.625.027 5.25.047 7.875.063l2.262.025c4.061.119 4.061.119 7.863-1.088v3l-12 3-1 4-1.875-1.5c-1.964-1.692-1.964-1.692-4.125-1.5-1.533-3.065-1.103-6.268-1.063-9.625l.014-2.14c.012-1.745.03-3.49.049-5.235Z" fill="#A2826D"/><path d="M293 224c2 2 2 2 2.063 4.375L295 231l.555 1.805c.583 2.873.087 5.081-.493 7.945l-.59 2.984L294 246l-5-3c.41-6.762 1.57-12.672 4-19Z" fill="#9A6F4F"/><path d="M104 211c2 2 2 2 3 5 2.015.733 2.015.733 4 1v2h2c-.577 3.892-2.5 6.045-5 9l-2 3c-1.788-6.817-2.237-12.965-2-20Z" fill="#A88F78"/><path d="M256 202c1.437-.054 2.875-.093 4.313-.125l2.425-.07C265 202 265 202 268 204c.293 2.82.293 2.82.188 6.125l-.083 3.32L268 216h-5l-.313-3.75c-.444-3.547-1.094-5.657-3.687-8.25l-3-2Z" fill="#5D4B3A"/><path d="M117 192h1v12l-4-1c-3.598-1.021-3.598-1.021-7 0-3.148 9.444-2.332 18.532-.438 28.176.463 2.983.51 5.81.438 8.824-5.166-9.27-5.674-23.546-3.395-33.695 1.761-4.988 1.761-4.988 4.395-6.305 6.533-.233 6.533-.233 9 1v-9Z" fill="#FBF3E9"/><path d="m178 206 5 1c.57 10.88.57 10.88-3 15h-2v-2l-4-1h2l2-13Z" fill="#77624D"/><path d="m311 230 3 1c.379 5.93-.894 10.472-3 16l-5-1c.256-1.607.53-3.21.813-4.813l.457-2.707c.799-2.713 1.736-3.573 3.73-5.48v-3Z" fill="#F6F3F1"/><path d="m196.273 153.34 3.497.283 3.605.315 3.676.302c2.983.247 5.966.5 8.949.76v1c-10.684 1.074-21.273 1.102-32 1v-3c4.249-.85 7.96-1.023 12.273-.66Z" fill="#130602"/><path d="M205 61c-1.97 2.666-3.03 3.006-6.375 3.625L195 65l-2.5.5c-3.15.63-6.318 1.063-9.5 1.5.96-2.401 1.56-3.735 3.809-5.09 5.866-2.436 12.075-2.081 18.191-.91Z" fill="#090909"/><path d="M93 335h1v12l-1-4c-2.191.822-2.191.822-2.852 3.066l-.773 2.497c-.39 1.239-.39 1.239-.79 2.503L88 353l-3-2c.147-6.93 3.37-10.995 8-16Z" fill="#1F1F1F"/><path d="M329 291h1c.151 12.037-.31 23.984-1 36h-1l-1-23h-2v-11l3 1 1-3Z" fill="#CECED1"/><path d="M123 173h3a500.368 500.368 0 0 1-2.5 17.875l-.395 2.586-.386 2.469-.346 2.226C122 200 122 200 121 202h-3v-4h2c-.095-.626-.19-1.253-.29-1.898l-.335-2.477-.352-2.46L119 189l2-2c.458-2.36.821-4.74 1.125-7.125l.508-3.883L123 173Z" fill="#1C0D04"/><path d="M202 237c1.125 6.75 1.125 6.75 0 9h-8c.346-5.37.346-5.37 1-8 2.786-2.321 3.52-2.16 7-1Z" fill="#C59475"/><path d="m123 216 1 3c2.015.733 2.015.733 4 1l1 7h-2v13c-3.716-7.431-4.316-15.772-4-24Z" fill="#886249"/><path d="m328 343 4 1 1 5h-2l2 3c-.313 3.962-1.75 6.76-4 10l-2 1c-.366-4.273.592-6.488 3-10l-2-2c-.27-2.688-.087-5.291 0-8Z" fill="#101011"/><path d="M131 150c2 1 2 1 3 2l2 1-1.793.77c-4.257 1.854-8.248 3.794-12.207 6.23-2.65 1.37-5.32 2.69-8 4l1-3c2.063-.688 2.063-.688 4-1v-3c2.555-1.86 2.555-1.86 5.875-3.75l3.305-1.922L131 150Z" fill="#1A1919"/><path d="M301 232c2 2 2 2 2.188 5.875-.068 2.84-.283 5.41-1.188 8.125h-7l1-4h2l.375-3.313C299 235 299 235 301 232Z" fill="#1B110B"/><path d="m212 204 4 2v2l-1.836.043c-6.238.355-10.685 1.856-16.133 4.898C196 214 196 214 194 214v-3l8-4 2.063-1.125c2.68-1.21 5.036-1.007 7.937-.875v-1Z" fill="#583F30"/><path d="M313 169h1c.125 2.375.125 2.375 0 5l-2 2c-.606 2.362-.606 2.362-1 5-.778 4.778-.778 4.778-3 7v-3h-3l-1-6h5v-6l3-1 1-3Z" fill="#1A1A1A"/><path d="M323 384h2c-.345 3.101-.848 4.8-2.75 7.313-2.662 1.996-4 2.048-7.25 1.687v-2h-19v-1l24-1 2-4 1-1Z" fill="#727375"/><path d="M303 227h1v8h3c-.482 4.134-.989 7.955-2 12h-11v-1h8l1-19Z" fill="#877970"/><path d="M166 159v1l-11.688 2.438-3.341.697-3.233.674-2.967.618A1044.35 1044.35 0 0 1 137 166v-3c9.267-3.09 19.25-4.39 29-4Z" fill="#140804"/><path d="M293 221h5c.461 8.608-1.272 16.615-3 25h-1c-.075-3.681.015-7.102.563-10.75.68-3.254.68-3.254-.563-6.25-.412-2.66-.693-5.325-1-8Z" fill="#846148"/><path d="M298 176h1c1.868 5.487 2.236 10.222 2 16h2l-1 8-2-1a120.286 120.286 0 0 1-1.625-8.25l-.406-2.316c-.648-3.828-1.256-7.539-.969-11.434l1-1Z" fill="#1B0F03"/><path d="M327 303h1c.087 3.604.14 7.208.188 10.813l.076 3.103.029 2.979.048 2.745c-.402 2.784-1.178 3.636-3.341 5.36a176.79 176.79 0 0 1-1-7l1-1c.21-2.67.376-5.325.5-8 .365-7.865.365-7.865 1.5-9Z" fill="#9FA1A5"/><path d="M238 208h2v8l4 1v2l13 2v1l-1.828.184-2.422.254c-.789.08-1.578.162-2.39.246-2.184.292-4.237.737-6.36 1.316-4.419-5.325-5.828-9.094-6-16Z" fill="#71604E"/><path d="m212.75 243.438 2.422.308L217 244v2l3 1h-21v-1h5v-2c3.122-.967 5.52-.99 8.75-.563Z" fill="#DCBAA5"/><path d="M118 227h1l1 19h-3a428.65 428.65 0 0 1-1.563-4.813l-.878-2.707C114 236 114 236 115 233l3 1v-7Z" fill="#8B776E"/><path d="m267 204 5 1v2l1.875.313C276 208 276 208 278 211c.125 2.688.125 2.688 0 5l-2 1v-6l-4-1-1 4h-2l-2-10Z" fill="#B0AAA6"/><path d="m183 208 7 7v4l-3 1v-2l-5 1 1-11Z" fill="#B7B2B0"/><path d="M237 209h2l.367 2.047.508 2.703.492 2.672c.601 2.447 1.413 4.384 2.633 6.578h-3l-1-5h-4l-1-2-2-1a158.814 158.814 0 0 1 5-6Z" fill="#B4A9A2"/><path d="m205.938 58.938 2.36.013c1.901.012 3.802.03 5.702.049-2.25 2.5-2.25 2.5-5 5h-4v-3h-15v-1c5.365-.905 10.503-1.123 15.938-1.063Z" fill="#3A3A3A"/><path d="M78 379c1.241 2.482 1 4.241 1 7l.563 2.188C80 390 80 390 79 392h-5c-.294-8.814-.294-8.814 2-12l2-1Z" fill="#292929"/><path d="M187.5 217.563 190 219v2c-1.956.838-3.915 1.67-5.875 2.5l-3.305 1.406C178 226 178 226 176 226c0-2 0-2 1.54-3.797 5.688-5.327 5.688-5.327 9.96-4.64Z" fill="#DCD1C7"/><path d="M313 207c-.954 2.128-1.676 3.724-3.469 5.25-2.139 2.444-2.508 4.791-3.219 7.938-.25 1.086-.502 2.173-.761 3.292L305 226h-1v-16l1 2h2v-2h2v-2c2-1 2-1 4-1Z" fill="#B0896E"/><path d="M190 200c.934 3.01 1.044 3.867 0 7a65.305 65.305 0 0 0-.063 4.188L190 215c-2.384-1.23-3.754-2.239-4.594-4.84-.571-3.487-.766-5.475.906-8.66C188 200 188 200 190 200Z" fill="#63493B"/><path d="m227 240 1 6h-7v-2h-2c.313-1.938.313-1.938 1-4 3.133-1.044 3.99-.934 7 0Z" fill="#B68C6A"/><path d="m288 232 1 3c-1.404 2.264-3.197 4.02-5 6l1 2 3 1v2h-10c1.376-4.503 3.352-6.152 7-9 1.79-2.619 1.79-2.619 3-5Z" fill="#B2886E"/><path d="m229 204 2 3 2-1v2l2 1-3 8h-3c-.195-1.79-.38-3.583-.563-5.375l-.316-3.023C228 206 228 206 229 204Z" fill="#6D5243"/><path d="M191 201c2.421 3.632 2.21 5.383 2.125 9.688l-.055 3.574L193 217l-3 1a519.13 519.13 0 0 1-.625-6.25l-.352-3.516c-.023-3.173.28-4.617 1.977-7.234Z" fill="#845B44"/><path d="m189 62-1.813.75c-2.659 1.328-2.659 1.328-5.187 5.25l-10-2c2.947-1.965 5.12-2.756 8.5-3.688.96-.271 1.918-.543 2.906-.824C186 61 186 61 189 62Z" fill="#3E3E3E"/><path d="m324 360 2 1v21h-1v-13l-3 1c-.195-6.055-.195-6.055 0-8l2-2Z" fill="#828186"/><path d="M192 221c1 3 1 3 .063 5.188L191 228v-2l-1.188 1.438c-2.22 1.914-3.946 2.175-6.812 2.562l-.313-1.938L182 226l-3-1c2.569-1.284 4.766-1.33 7.625-1.563l3.04-.253L192 223v-2Z" fill="#DBBAA5"/><path d="M193 208h1c.221 2.791.427 5.582.625 8.375l.195 2.406c.14 2.07.168 4.145.18 6.219l-2 2-1-4-2 1c-2 .04-4 .043-6 0 3.75-3 3.75-3 6-3v-3l2-1c.467-2.126.467-2.126.625-4.563l.227-2.503L193 208Z" fill="#BA9A86"/><path d="m252 205 4 1-.563 1.875c-.674 2.167-.674 2.167.563 4.125h-3v4l-5-1 3-1-3-2v-2h2l2-5Z" fill="#1D1F1E"/><path d="M221 60c1.603-.081 3.208-.14 4.813-.188l2.707-.105c2.896.342 3.706 1.047 5.48 3.293-3.75 3-3.75 3-6 3v-2h-5l-2-4Z" fill="#191919"/><path d="M326 333c1.775 3.041 2.213 5.047 1.977 8.547l-.157 2.558-.195 2.645-.172 2.691A734.905 734.905 0 0 1 327 356c-2.43-4.53-1.837-6.975-1-12h-5l1-3 2-1c.73-2.314 1.401-4.648 2-7Z" fill="#929195"/><path d="M299 225c1.128 3.384.943 5.529.625 9.063l-.273 3.222C299 240 299 240 298 242h-2l-1 2c.575-4.31 1.252-8.592 2-12.875l.5-2.867C298 226 298 226 299 225Z" fill="#3B2D22"/><path d="m147 200 4 1-2.938 2.063c-2.843 2.328-3.051 2.89-3.937 6.75L144 213h-2l-1 2-1-2h-2l2-5h2l.813-1.75c1.204-2.283 2.595-4.224 4.187-6.25Z" fill="#654A3C"/><path d="M112 237h2c1.423 3.823 2.24 6.913 2 11-4.875-1.75-4.875-1.75-6-4-.04-2-.043-4 0-6l1 3 1-4Z" fill="#F6F5F2"/><path d="m302 196 1 4h2l-1 15h-1v-9l-3 1c-.25-7.625-.25-7.625 2-11Z" fill="#39271B"/><path d="M266 219v3l-4 2v2l-6 1c1.063-2.875 1.063-2.875 3-6 3.688-1.375 3.688-1.375 7-2Z" fill="#BFA38A"/><path d="M174 220h4l1 3c-2.349 2.505-4.091 3.906-7.559 4.266A115.771 115.771 0 0 1 164 227v-1l2.75-.188c4.032-1.007 4.783-2.605 7.25-5.812Z" fill="#BEA189"/><path d="m262 214 1 3c-2.349 2.505-4.091 3.906-7.559 4.266A115.771 115.771 0 0 1 248 221l-1-2c1.247-.2 1.247-.2 2.52-.402l3.292-.536 3.27-.527c2.967-.474 2.967-.474 5.918-1.535v-2Z" fill="#45392E"/><path d="M154.227 199.336 156 200l-6 2v2l2 1c-3.75 3-3.75 3-6 3l-2 4c-1-2-1-2-.5-4.25 2.12-3.885 5.864-9.148 10.727-8.414Z" fill="#46362D"/><path d="M146 165h-2v2l-1.863.367-2.45.508-2.425.492c-2.515.578-2.515.578-5.262 2.633l-3 1-2-2c14.61-6.688 14.61-6.688 19-5Z" fill="#674A37"/><path d="M341 370c2.19 3.285 2.353 4.831 2.625 8.688l.227 3.011L344 384l-2.313-2c-2.53-2.299-2.53-2.299-5.687-2l1-5h3l1 2v-7Z" fill="#3C3C3C"/><path d="M327 275h1v16l-3 1c-.22-6.098-.012-11.216 2-17Z" fill="#B2B3B7"/><path d="M91 278c3 2 3 2 3.813 5.625.426 4.483-.513 8.093-1.813 12.375h-1c-.896-6.048-1.113-11.89-1-18Z" fill="#9E9DA2"/><path d="M228 210h1v7h3l.813 1.813c1.172 2.16 2.38 3.545 4.187 5.187-6.152-.586-6.152-.586-8-1-1.322-2.645-1.097-4.678-1.063-7.625l.028-3.04L228 210Z" fill="#B49785"/><path d="M268 207h1c.081 1.603.14 3.208.188 4.813l.105 2.707C269 217 269 217 267.75 218.78c-3.039 2.117-6.113 1.92-9.75 2.219 2.578-2.648 4.916-4.944 8-7v2h2v-9Z" fill="#8C7762"/><path d="M217 204h3l1 3c2.504 1.219 2.504 1.219 5 2v2h2l-1 3-10-4v-6Z" fill="#5D422E"/><path d="M164 200c6.178.259 11.599 1.447 16 6h-2v10h-1l-1-10c-6.892-2.405-6.892-2.405-14-4l2-2Z" fill="#39322D"/><path d="M169 66h9v4l-8 1-1-5Z" fill="#151515"/><path d="m159 214 5 2v2l8-2v3l2 1c-3.15 1.575-5.52 1.348-9 1-2.452-1.431-3.982-2.932-6-5v-2Z" fill="#3A332B"/><path d="M301 206h2l1 15-2-3-2 1c-.027-1.98-.046-3.958-.063-5.938l-.035-3.34C300 207 300 207 301 206Z" fill="#1F0C02"/><path d="M248 65c5.07.654 9.42 2.855 14 5-3.644 2.43-5.712 2.162-10 2l-.875-2.375c-.974-2.722-.974-2.722-3.125-4.625Z" fill="#3F3F3F"/><path d="M123 224h1l1.438 7.625.408 2.16A498.98 498.98 0 0 1 128 246h-3c-1.609-7.426-2.264-14.405-2-22Z" fill="#463629"/><path d="m304 226 2 3 3 1a415.708 415.708 0 0 1-.375 4.813c-.07.893-.14 1.786-.21 2.707C308 240 308 240 306 243l1-8h-3v-9Z" fill="#D3CFCC"/><path d="M157 217h2v2c3.31 1.001 6.3 1.104 9.75 1.063l2.984-.028L174 220l-1 2c-3.02.555-3.02.555-6.813.875l-3.769.367C159 223 159 223 156.551 221.008L155 219h2v-2Z" fill="#7C6754"/><path d="M268 205v11h-4c-1.255-2.51-.862-3.388-.188-6.063l.52-2.16c.742-1.974 1.424-2.777 3.668-2.777Z" fill="#725B44"/><path d="M172 180v1l-2.273.367c-5.961.976-11.872 2.038-17.766 3.363C150 185 150 185 148 184c7.763-4.712 15.201-4.417 24-4Z" fill="#4F3A2A"/><path d="m114 152 5 1v7l-5 2v-10Z" fill="#060606"/><path d="M313 207h4l-1 9-2.938.813L310 218l-1 3-2-1c1.453-3.83 3.429-5.12 7-7l-1-6Z" fill="#966D52"/><path d="M272 202c3.795 1.265 5.439 2.954 8 6 .313 2.813.313 2.813 0 5-2-1.375-2-1.375-4-3v-2l-4-1v-2l-2-1 2-2Z" fill="#483830"/><path d="m238.25 135.375 3.828.336L245 136v2c-2.062.027-4.125.046-6.188.063l-3.48.035c-2.925-.086-5.495-.42-8.332-1.098 3.764-2.49 6.866-2.03 11.25-1.625Z" fill="#363636"/><path d="M316 230h1l-1 15 9 1v1h-12c.747-5.724 1.829-11.349 3-17Z" fill="#FBFBFB"/><path d="M118 226v6l-3-1v-2l-3 2 1 3-2 1-3-2h2v-5c3.088-1.765 4.233-2 8-2Z" fill="#F5F7F7"/><path d="M216 154h8v3h-21v-1h13v-2Z" fill="#25130A"/><path d="m96 384 2 1v2h4l2 5-7-1-1-7Z" fill="#606165"/><path d="M292 222c1 3 1 3-.438 6.188L290 231l-2-2-4 2 .938-1.813c1.164-2.277 1.164-2.277 2.062-5.187 2.563-1.188 2.563-1.188 5-2Z" fill="#BB9C88"/><path d="M213 210c-2.821 3.106-4.758 3.74-9 4-2.375-.938-2.375-.938-4-2 3.84-4.174 7.924-2.9 13-2Z" fill="#946F58"/><path d="M311.188 203.313 313 204v3l-4 1v2h-2v2h-2c.601-5.411.601-5.411 2.313-7.938C309 203 309 203 311.188 203.313Z" fill="#CA9E7D"/><path d="m134 93 2 1c-1.27 3.914-2.512 5.79-6 8l-2-1c.349-3.255 1.021-4.019 3.563-6.25L134 93Z" fill="#0F0F0F"/><path d="M91 343h2v13l-3-1c-1.117-4.69-.806-7.538 1-12Z" fill="#111112"/><path d="M160 203h5c.625 1.875.625 1.875 1 4l-2 2h-4c-1.125-3.75-1.125-3.75 0-6Z" fill="#DED9D5"/><path d="m148 219 1 2h3v2l2 1-2.117-.035-2.758-.028-2.742-.035c-2.4-.064-2.4-.064-4.383 1.098v-2l-2-1 8-1v-2Z" fill="#BB9B85"/><path d="m146 175-2 9h2v2c-3.875-.875-3.875-.875-5-2-.466-5.364-.466-5.364 1.375-7.875C144 175 144 175 146 175Z" fill="#321E12"/><path d="m252 137-2 1v2l-18-1v-1c13.633-1.148 13.633-1.148 20-1Z" fill="#2A2A2A"/><path d="m105 207 6 2-1 2-3-1 1 5 4 1-1 3v-2l-5-1-1-9Z" fill="#966C4E"/><path d="m246 203 5 1-1 5-5-1 1-5Z" fill="#DCDAD8"/><path d="M150 205h4l1 14-2-1c-.644-2.828-1.023-5.661-1.438-8.531L151 207l-2-1 1-1Z" fill="#9D948F"/><path d="m144 213 1 5c-3.981 1.327-7.85 1.07-12 1 3-2 3-2 6-2l-1-2c3.75-2 3.75-2 6-2Z" fill="#7E5F4E"/><path d="M148 207c1.245 2.49.777 3.41 0 6h2v2l-6 1c-.25-2.25-.25-2.25 0-5 2-2.313 2-2.313 4-4Z" fill="#B0ADAA"/><path d="m127 99 1 2h2l1 3-4 3-2-1v2h-2c1.059-3.403 2.009-6.014 4-9Z" fill="#3D3D3D"/><path d="M218 303c-.613 2.962-1.254 4.38-3 7h-4c.25-2.375.25-2.375 1-5 2.151-1.457 3.403-2 6-2Z" fill="#DADBE0"/><path d="m234 215 1 3h4v3c-2.375.625-2.375.625-5 1l-2-2v-4l2-1Z" fill="#CABFBA"/><path d="M216 216h2v5h2l1 3-5-2v-2h-8c1.813-1.063 1.813-1.063 4-2l3 1 1-3Z" fill="#C79C7D"/><path d="M123 109h3v8l-2 1v-2l-3-1c.875-4.875.875-4.875 2-6Z" fill="#0F0F0F"/><path d="M93 335h1v12l-1-4c-1.984-1.284-1.984-1.284-4-2a250 250 0 0 1 4-6Z" fill="#2F2F32"/><path d="m145 216 2 1-1 3h-16l-1-3 3 1c2.228.07 4.458.085 6.688.063l3.574-.028L145 218v-2Z" fill="#8F7260"/><path d="M114 188h4v2h2v8h-2v-6l-4-2v-2Z" fill="#2B2927"/><path d="M171 155a364.73 364.73 0 0 1 4.875-.125l2.742-.07C181 155 181 155 183 157c-1 1-1 1-3.723 1.098l-3.34-.036-3.347-.027L170 158l1-3Z" fill="#120501"/><path d="m273 244-1 3-11-1c4.423-2.949 6.849-3.288 12-2Z" fill="#D4BAA9"/><path d="m275.563 221.313 2.378.238C280 222 280 222 282 224h-15c1.838-3.675 4.965-3.085 8.563-2.688Z" fill="#BB9D88"/><path d="M151 217c2.468 1.152 4.048 2.048 6 4v3l-5-1v-2h-2l1-4Z" fill="#CFC7C3"/><path d="M170.063 202.75 173 204l1 3h-8l-1-4c2-1 2-1 5.063-.25Z" fill="#1E1915"/><path d="m298 120 3 2h-2v2h2l2-2c1 1 1 1 1.063 3.563L304 128l-1-2h-3v2h-3l1-8Z" fill="#0A0A0A"/><path d="M298 240h2l2 6h-7l1-4h2v-2Z" fill="#1F171A"/><path d="M197 240h3v6h-5c.875-4.875.875-4.875 2-6Z" fill="#B18367"/><path d="M288 227h1c-.313 3.375-.313 3.375-1 7l-3 2-2-5 5-2v-2Z" fill="#CDAF9B"/><path d="m255 222-2 4c-2.875.125-2.875.125-6 0l-2-2c3.644-2.43 5.712-2.162 10-2Z" fill="#997F6A"/><path d="M244 209h6l-3 7-3-1v-6Z" fill="#2B261C"/><path d="m260 201-4 1v3l-5 1-3-4c4.053-.982 7.839-1.082 12-1Z" fill="#292625"/><path d="m120 113 4 3-1 3-3 1c-1.685 1.997-1.685 1.997-3 4 .31-1.459.622-2.917.938-4.375l.527-2.46C119 115 119 115 120 113Z" fill="#606060"/><path d="M147 83v3l-2 1c-1.134 2.017-1.134 2.017-2 4v-4l-4-1c2.466-3.115 4.108-3.316 8-3Z" fill="#1D1D1D"/><path d="m246 65 5 2v2h-2v2l-5-1 2-5Z" fill="#0C0C0C"/><path d="m191 61 1 4-9 2c2.04-4.082 3.324-6 8-6Z" fill="#0F0F0F"/><path d="m339 369 2 1c.594 2.649.742 5.292 1 8l-2-1v-2h-2v-2l-2-1v-2l3-1Z" fill="#080808"/><path d="m327 338 3 1c1.188 2.563 1.188 2.563 2 5h-3l-1 5h-1v-11Z" fill="#353536"/><path d="M217 306c3 0 3 0 6 2v2c-2.709 1.354-5.01 1.065-8 1l2-5Z" fill="#B0B1B6"/><path d="M131 224c2.5 1.375 2.5 1.375 5 3v2l2 1-6 1c-2-3-2-3-1.625-5.188L131 224Z" fill="#C4A38B"/><path d="m106 218 1 2h2v2l3 1-5 5-1-10Z" fill="#BE9C81"/><path d="M316 216c-.25 1.875-.25 1.875-1 4-1.875 1.313-1.875 1.313-4 2l-3-1c4.625-5 4.625-5 8-5Z" fill="#B18467"/><path d="M120 213h1c.224 1.414.428 2.832.625 4.25l.352 2.39c.027 2.72-.504 4.095-1.977 6.36l-2 1 2-14Z" fill="#1F1916"/><path d="M243 205c-1 2-1 2-3.25 3.313-3.061 1.878-5.29 4.086-7.75 6.687 1.731-6.348 3.793-10.8 11-10Z" fill="#3D281E"/><path d="m212 204 4 2v2h-10v-3h6v-1Z" fill="#49382E"/><path d="m113 202 6 3v10h-1l-2-9h-2l-1-4Z" fill="#8E7560"/><path d="M117 192h1v12c-3.837-.96-4.597-1.236-7-4l6 1v-9Z" fill="#CCC8BE"/><path d="M131 198h3v2l2 1-1 4h-4v-7Z" fill="#7F5B45"/><path d="M308 163c2.063.688 2.063.688 4 2 .75 2.125.75 2.125 1 4h-4c-2-2-2-2-3-5l2-1Z" fill="#4E4E4E"/><path d="m179 216 3 1c-.313 1.938-.313 1.938-1 4l-3 1v-2l-4-1c2.313-1.563 2.313-1.563 5-3Z" fill="#907D6C"/><path d="M106 204h5l1 7-1-2c-2.527-.656-2.527-.656-5-1v-4Z" fill="#AE876A"/><path d="M155 184c-.938 2.063-.938 2.063-3 4-3.071.06-5.99-.42-9-1 3.474-2.316 7.954-5.023 12-3Z" fill="#674A38"/><path d="M313 169h1c.125 2.375.125 2.375 0 5l-2 2c-.4 2.323-.74 4.657-1 7h-1l-1-10 3-1 1-3Z" fill="#797979"/><path d="M297 111h4l-1 5-4 1a99.984 99.984 0 0 1 0-5l1-1Z" fill="#111"/><path d="m87 354 1 5-4 1v-2l-2 2v-4c3-2 3-2 5-2Z" fill="#0E0E0E"/><path d="M219 318h1c1.129 3.311 2.213 6.59 3 10h-4v-4l-2-1h2v-5Z" fill="#D3D4D9"/><path d="M152 243c5.75.75 5.75.75 8 3l-11 1 2-1 1-3Z" fill="#D4BAA8"/><path d="M107 240c2 3 2 3 2 7H96v-1l10-1 1-5Z" fill="#FCFCFC"/><path d="m129 221 7 2-1 5-1.875-1.5c-1.964-1.692-1.964-1.692-4.125-1.5v-4Z" fill="#B1927D"/><path d="M106 217h5v2h2v3h-4v-2h-2l-1-3Z" fill="#AA8368"/><path d="m254 213 1 2 3-1-1 4h-6c.375-1.938.375-1.938 1-4l2-1Z" fill="#272A2F"/><path d="m156 199 2 1v3l-8 1v-2a100.644 100.644 0 0 1 6-3Z" fill="#2D2016"/><path d="M220.563 58.938 224 59l-3 1 3 2c-1 1-1 1-3.438 1.25L218 63l-2-3c1-1 1-1 4.563-1.063Z" fill="#313131"/><path d="m323 382 2 2c-2.872 2.703-4.31 3.948-8.313 4.25L314 388c1.616-3.233 4.77-3.673 8-5l1-1Z" fill="#89898F"/><path d="m243 239 1 2 4-1 1 5c-4.75-.875-4.75-.875-7-2l1-4Z" fill="#EDC9B2"/><path d="M157 222h13v1c-4.421 1.79-7.365 2.294-12 1l-1-2Z" fill="#9B7E66"/><path d="m244 220 13 1v1c-.905.09-.905.09-1.828.184l-2.422.254c-.789.08-1.578.162-2.39.246-2.184.292-4.237.737-6.36 1.316v-4Z" fill="#7C6B59"/><path d="M113 210c3.123 2.518 3.945 3.726 4.75 7.75L118 221c-2.706-1.353-2.962-2.81-4.125-5.563l-1.07-2.503L112 211l1-1Z" fill="#AD8566"/><path d="m189 210 4 1v6l-3 1-1-8Z" fill="#785C4E"/><path d="M229 204c2.21 3.314 2.225 4.345 2.125 8.188l-.055 2.73L231 217h-2c-.195-1.79-.38-3.583-.563-5.375l-.316-3.023C228 206 228 206 229 204Z" fill="#866753"/><path d="m164 202-4 1v2c-2.875.625-2.875.625-6 1l-2-2c4.177-1.591 7.532-2.213 12-2Z" fill="#6A6054"/><path d="M265 199c3.438.813 3.438.813 7 2l1 3c-2.25.25-2.25.25-5 0-2.313-2-2.313-2-4-4l1-1Z" fill="#2D241A"/><path d="M289 98h4v3l2 2-3 1-2-1v-2h-2l1-3Z" fill="#090909"/><path d="M287 92c4.875 2.625 4.875 2.625 6 6-2.375-.25-2.375-.25-5-1-1.313-2.063-1.313-2.063-2-4l1-1Z" fill="#1C1C1C"/><path d="m214 59 3 1-1 4h-6v-2c1.813-1.688 1.813-1.688 4-3Z" fill="#0B0B0B"/><path d="m227 220 2 1-2 6-4-2h2v-4l2-1Z" fill="#BE9171"/><path d="m178 206 5 1v3h-3l-2 4v-8Z" fill="#64523F"/><path d="M244.25 199.313 246 200l-9 6c.375-2.72.842-3.842 2.813-5.813C242 199 242 199 244.25 199.313Z" fill="#604633"/><path d="M320 247c1.945-.293 1.945-.293 4.125-.188L328 247c-2.55 2.354-3.71 2.983-7.25 3.188L318 250l2-3Z" fill="#E2E2E5"/><path d="m228 223 2 1v5h-5l-1-3h3l1-3Z" fill="#CC9E82"/><path d="m310 222 5 2v2h2l-1 6c-1.206-2.332-2.165-4.496-3-7-1.5-1.667-1.5-1.667-3-3Z" fill="#B8A89A"/><path d="m184 217 6 2v2c-3.623 1.208-4.641.543-8-1l2-3Z" fill="#CDC6BE"/><path d="M278 212c2 2 2 2 2 5l4 2h-8l2-7Z" fill="#7C6251"/><path d="M183 208c1.512 1.379 1.512 1.379 3 3-.288 2.973-1.6 5.388-3 8-1.26-2.52-.919-3.854-.563-6.625l.31-2.477L183 208Z" fill="#A8A096"/><path d="m107 210 5 1v5l-4-1-1-5Z" fill="#875A3C"/><path d="m116 243 1 3 3 1v3h-5l1-7Z" fill="#D6CFCB"/><path d="M239.25 244.313 242 245v2h-10c4-3 4-3 7.25-2.688Z" fill="#DBBFAF"/><path d="M216 245v2h-9v-2c3.069-1.534 5.7-.55 9 0Z" fill="#E1C4B3"/><path d="m269 218 3 1-1 3c-3.563 1.188-3.563 1.188-7 2l5-6Z" fill="#D9CDC3"/><path d="M220 210v4l-4 1-2-5c2.49-1.245 3.41-.777 6 0Z" fill="#936D55"/><path d="M252 205c2.063.438 2.063.438 4 1l-.563 1.875c-.674 2.167-.674 2.167.563 4.125-1.938-.75-1.938-.75-4-2-.813-2.063-.813-2.063-1-4l1-1Z" fill="#1B1612"/><path d="m84 348 3 4c-1.375 2-1.375 2-3 4h-2l2-8Z" fill="#454545"/><path d="M332 345a90.488 90.488 0 0 1 4 4v2l-4 1-1-3h2l-1-4Z" fill="#323232"/><path d="M307 222c1.875.25 1.875.25 4 1 1.25 2.063 1.25 2.063 2 4l-3 2-3-7Z" fill="#FCF5EC"/><path d="m239 220 1 3h4v2c-5.75-.875-5.75-.875-8-2v-2l3-1Z" fill="#E0D5D0"/><path d="M129 211h3v7l-3-1v-6Z" fill="#806551"/><path d="M109 201c2.188.313 2.188.313 4 1v3l-7-1c1.25-1.563 1.25-1.563 3-3Z" fill="#BBA08A"/><path d="M134 167v3c-2 1-2 1-5 2l-2-2 7-3Z" fill="#65432E"/><path d="m136 167-9 3c1-3 1-3 2.813-4.313C132 165 132 165 136 167Z" fill="#170B04"/><path d="m138 88 3 1c-1.75 3.875-1.75 3.875-4 5v-2h-2v-2l3-2Z" fill="#090909"/><path d="m237 63 6 1v3l-6-1v-3Z" fill="#060606"/><path d="m221 211 7 3v3a56.54 56.54 0 0 1-7-4v-2Z" fill="#936C53"/><path d="M140 208h2v7l-4-2 2-5Z" fill="#6E5244"/><path d="m175 204 5 1-2 1v10h-1l-.184-2.117-.254-2.758c-.08-.905-.162-1.81-.246-2.742-.186-2.394-.186-2.394-1.316-4.383Z" fill="#504030"/><path d="m305 173 3 1c1.188 2.563 1.188 2.563 2 5l-2 1v-2l-3-1-1-3 1-1Z" fill="#040404"/><path d="M138 86c2.688.313 2.688.313 5 1l-2 3c-4 0-4 0-6-1 1.188-1.563 1.188-1.563 3-3Z" fill="#323232"/></svg>