<svg version="1.0" xmlns="http://www.w3.org/2000/svg" width="400" height="400" viewBox="0 0 300 300"><path d="M133.4 44.5C112.9 49 96.6 61 88.5 77.2c-3.7 7.7-5.9 17.5-7.1 32-.3 4.8-1.2 9-2 9.9-1.6 1.8-1.8 4.5-.4 5.4.5.3 1 1.6 1 2.8 0 1.3.9 4 1.9 6 1.7 3.2 2 6.6 2.4 22.3.2 10.2 0 17.9-.4 17.2-.7-1-.9-.9-.9.3 0 .9.8 2 1.7 2.3 2.5 1 29.3.5 29.3-.5 0-.9-4.1-1.3-8.6-1-3.4.3-8.8-4.6-12.6-11.3-.9-1.7-1.7-2.7-1.8-2.3 0 1.4 3.1 7.1 5.3 9.4l2 2.2-2.8 1.1c-1.6.6-3.4.9-4.1.6-3.6-1.4-5.2-31.3-2.5-45.2l1.4-7.1 5.1-2.1c6.8-2.7 17.6-4.9 32.6-6.8 7.2-.8 35.7-.8 44 .1 9.4 1 22.7 3.3 29 5.1 9 2.5 9.7 3.4 11.6 15.4 1.4 9 1.5 12.2.5 22.7-.7 6.8-1.7 13.6-2.2 15.2-.9 2.6-1.5 2.9-4.1 2.6-4.2-.5-4.3-.9-1.4-4.8 3.9-5 3.1-5.6-1.1-.8-3.5 3.8-12.5 8.9-10.7 6 .5-.9.2-1-1-.6-1 .4-4.3.7-7.4.8-12 .2.6 1.6 16 1.8l15.3.2.1-7.3c0-4 .1-8.9.1-10.8 0-1.9 0-7.2.1-11.8 0-7.8 1.7-14.3 5.3-21.4 1.3-2.5 1.1-3.9-.6-5.8-1-1.1-2.1-6.1-3-14.6-1.5-13.5-3.4-21.2-6.7-27.9-8-15.9-24.7-27.7-45-31.9-9.2-1.9-24.9-1.9-33.4-.1zm36.5 4.7c7.4 1.8 15.9 5.5 21.3 9.2 2.5 1.7 11 9.9 12.8 12.2 5.2 6.8 9.3 19.7 10.5 33.4.4 4.1 1.1 8.2 1.6 9.2.6 1.1.5 1.9-.1 2.3-.8.5-.7 1.2.2 2.2 1.7 2.1 1.8 3.3.3 8.9l-1.3 4.9-1.2-3c-.6-1.6-.9-3.7-.7-4.7.3-1 .1-1.8-.4-1.8s-.9-.6-.9-1.4c0-2.9-15.9-7.2-37.5-10.1-9.2-1.3-41.3-1.3-50-.1-10.9 1.6-25.8 5-30.8 7.1-3.9 1.6-5.6 3.4-6.2 6.6-1.7 8.8-1.7 8.8-3.2 2.9-1.1-4.2-1.1-6-.2-8.2.6-1.6.9-3.1.6-3.5-.4-.3-.2-1.4.4-2.4.5-1 1.2-5.8 1.4-10.6.2-4.9.9-10.4 1.5-12.3.6-1.9 1.4-4.8 1.7-6.4 1.1-6.5 11-18.8 20.1-25 9.5-6.6 18.8-10 32.7-12 5.5-.8 18.9.5 27.4 2.6z"/><path d="M135.5 99.1c-3.1.4-.7.5 6.5.3 11.2-.5 28.5.7 32.5 2.2 1.5.5 1.7.4.9-.5-2.3-2.5-28.1-3.8-39.9-2z"/><path d="M114 103c-3 1.1-4.1 1.7-2.5 1.4 1.7-.3 4.5-.8 6.3-1.1 1.8-.3 3.5-.9 3.8-1.4.8-1.3-1.5-1-7.6 1.1z"/><path d="M185 103.6c2.5.7 5.4 1.3 6.5 1.3 1.1 0 0-.7-2.5-1.5-2.5-.7-5.4-1.3-6.5-1.3-1.1 0 0 .7 2.5 1.5z"/><path d="M109.5 121.5c-5.1 2-8.5 5.2-8.5 8.2 0 2.8.9 2.8 8 .3 7-2.5 9.7-2.5 16.8 0 5.4 1.9 5.8 1.9 7 .3 2.1-2.9 1.1-6.6-2.3-8.3-4.2-2-16.1-2.3-21-.5zm19.3 2.2c1.7 1.1 2.6 2.5 2.4 3.5-.4 2.2-1.9 2.2-6.7.2-3.8-1.6-6.1-1.4-17.7 1.2-5.3 1.2-2.1-3.3 3.7-5.4 5-1.7 15.1-1.4 18.3.5z"/><path d="M171 121.8c-3.9 1.9-5 5.4-2.7 8.6 1.3 1.8 1.5 1.8 4.8.2 5.6-2.8 11.7-3.1 17.9-.7 7.2 2.8 9 2.7 9-.2 0-7.5-19.2-12.7-29-7.9zm20.5 2c5.6 2.8 7.3 5.9 2.8 4.8-1.6-.3-4.6-.9-6.8-1.1-2.2-.3-4.6-.8-5.3-1-.8-.3-3.6.3-6.3 1.2-3.9 1.4-5.1 1.5-6.1.5-2.2-2.2.4-4.5 6.3-5.8 6.1-1.3 11-.8 15.4 1.4z"/><path d="M109.7 142.4c-4.9 1.8-7.5 4.2-9.3 8.5-.8 1.8-1.4 3.5-1.4 3.6 0 .4 7.9 4.5 8.6 4.5.3 0-.9-1.5-2.5-3.3-1.7-1.7-3.1-3.4-3.1-3.7.1-1.9 7.6-7.8 8.6-6.8.2.3 0 1.7-.7 3.1-2.5 5.5 2.3 12.2 9.2 12.9 2.2.2 4.3 0 4.5-.4.3-.4-1.1-.8-3-.8-2.2 0-4.4-.8-6-2.3-2.7-2.4-4.6-7.7-2.7-7.7.6 0 1.1.8 1.1 1.8s1.1 2.9 2.4 4.1c3.2 3 7.3 2.5 10-1.2 1.9-2.6 2-3 .5-5.5-.9-1.5-2.2-2.6-3-2.4-.8.2-1 0-.6-.4s-.3-1.4-1.5-2.1c-2.2-1.3-2.2-1.3.7-.7 4.4.9 10.3 5 12.5 8.7 2.6 4.1 2.5 4.4-.7 6.1-1.7.9-2.2 1.5-1.2 1.6 2.3 0 4.9-3.3 4.9-6.3 0-2.9-6.3-9-11.7-11.3-4.1-1.8-10.6-1.7-15.6 0zm8.1 4.4c.3 1.6-.2 2.2-1.7 2.2-2.4 0-3.5-1.5-2.7-3.6.9-2.3 4-1.3 4.4 1.4zm6.2 2.6c0 .8-.8 2.4-1.8 3.6-1.4 1.7-2.3 2.1-3.6 1.3-1.6-.9-1.5-1.1.4-3.6 2.3-2.9 5-3.6 5-1.3z"/><path d="M173.9 143c-4 2.1-10.9 9.3-10.9 11.3 0 1.9 3 5.2 5.5 6.1 1.4.4 1-.1-1-1.8-2.9-2.4-2.9-2.6-1.5-5.2 1.5-2.8 9.3-9.4 11.1-9.4 1.6 0 2.3 3 1 4.3-.9.9-1.7.8-3.2-.1-2-1.3-2.1-1.2-1.4 2 1.6 7.3 7.5 9.9 12 5.3 4-3.9 2.7-8.2-3.1-10.6-4.7-1.9-.3-2.3 5.9-.5 3.1.9 6.4 2.7 8.2 4.6l2.9 3-3.5 3.7c-3.4 3.6-3.1 3.7 2.4 1.1 2.5-1.1 2.8-1.7 2.3-4.6-1.4-8.9-17.1-14.3-26.7-9.2zm10.5 9.4c-.7 1.8-4.6 2.8-5.8 1.6-.7-.7-.4-1.6.8-2.8 1.1-.9 1.5-1.1 1.1-.3-.5.9-.4 1.2.3.7.6-.4.8-1.4.5-2.3-.4-1.1-.3-1.4.5-.9.7.4 1.2.1 1.3-.6 0-.7.4-.3.9 1 .5 1.2.7 2.8.4 3.6z"/><path d="M75.8 146.2c-1.4 2.7-1.3 16.2.2 18.7.8 1.3.9 1.1 1-1.2 0-2.6 3-6.7 5-6.7 1.2 0 .2-2.8-2.1-5.8-2.2-2.8-1.4-5.6 1.3-4.9 1.6.5 1.7.3.7-.9-1.7-2.1-4.7-1.7-6.1.8z"/><path d="M219 145.5c-1.1 1.3-1 1.5.1 1 .8-.2 2.1-.1 2.9.4 1.2.9 1.2 1.2-.2 2.8-.8 1-2.1 2.8-2.7 4.1-1.1 2-.8 2.5 1.9 4.8 1.6 1.4 3 3.6 3.1 4.7.1 5.1 1.8-1.9 1.8-8 .1-9.5-3.2-14.2-6.9-9.8z"/><path d="M146.8 147.1c-.2.4-1.6 1-3.2 1.3-3 .5-6.4 3.1-5.4 4.1.3.3 2.5-.6 4.9-2 5.5-3.1 9.2-3.1 14.7 0 3.2 1.8 4.2 2.1 4.2.9 0-1.5-4.5-3.9-6.7-3.5-.7.1-1.3-.2-1.3-.7 0-1-6.9-1.1-7.2-.1z"/><path d="M189.8 148.8c.2 1.6-.4 4.6-1.3 6.8l-1.6 3.9 2.2-2.1c2.2-2.3 3-8.7 1.2-10.5-.6-.6-.8.1-.5 1.9z"/><path d="M170.7 151.4c-1.8 4.6 5.9 11.1 11.3 9.5 2.2-.6 2.1-.7-1.1-.8-4-.1-7.1-2.8-8.6-7.5-.8-2.5-1-2.7-1.6-1.2z"/><path d="M129.1 152c0 .8-.8 2.7-1.5 4.2-.8 1.6-1.1 2.8-.6 2.8 1.5 0 3.2-3.9 2.7-6.3-.2-1.2-.5-1.5-.6-.7z"/><path d="M140.2 171.5c-1.1 1.4-2.5 2.5-3.2 2.5-.6 0-.8.4-.5 1 .3.5 2.1 1 4 1s3.7-.5 4-1c.3-.6.1-1-.5-1-.8 0-1-.9-.6-2.5.4-1.4.2-2.5-.3-2.5s-1.8 1.1-2.9 2.5z"/><path d="M157.3 172c.3 1.1.1 2-.5 2-.5 0-.6.4-.3 1 .3.5 2.5 1 4.8 1h4.1l-3.4-3c-4.1-3.5-5.4-3.7-4.7-1z"/><path d="M65.7 178.7c-1 .9-.9 7.7.5 35.1.9 18.8.9 24.7 0 26-6 8.5-15 37-12.2 38.7 1.1.7 190.2.7 190.8 0 1.8-1.8-5.5-28.1-9.5-34.4l-2.8-4.4 1.3-24.1c1.4-26.6 1.3-36.8-.4-37.3-.7-.2-1 2.1-.9 7.4.1 4.3-.3 18.1-1 30.8-1.2 23.2-1.1 25.5.7 25.5 1 0 .3 29.3-.8 33-.3 1.3-10 1.5-81.1 1.2-44.4-.1-81.1-.6-81.4-1-.4-.4-1.1-8-1.5-16.9-.6-14.7-.5-16.3 1.1-17.9 1.9-2 1.9 0-.5-38.9-.5-8.3-.6-16.9-.3-19.3.5-3.9-.3-5.3-2-3.5zm-.9 85.4c-.3 9.1-.5 10.4-2.1 10.7-3.8.8-4.6-1.4-3.1-8 .8-3.4 1.9-6.7 2.5-7.4.5-.6.9-1.6.8-2-.1-.5-.1-2 0-3.4.1-1.6.4-2.1 1.1-1.4.7.7 1 5.2.8 11.5zm173.3-1.6c.7 3.3 1.6 6.8 2.1 7.7.5 1.2.5 1.8-.2 1.8-.5 0-.9.6-.7 1.2.1.7-.7 1.3-1.8 1.3-1.8 0-2-.8-2.3-7.5-.2-4.1 0-8.6.4-10 .7-2.8.7-2.9 2.5 5.5z"/><path d="M150.2 217.5c-.7 1.6-2 2.5-3.4 2.5-1.9.1-1.8.3 1 1.5 2.3 1 4 1.2 5.8.5 1.7-.7 3.2-.6 4.5.1 1.8.9 1.9.8.7-1-.7-1.2-1.6-2.1-2.1-2.1-.4 0-.5-.6-.1-1.3.4-.6-.3-.2-1.5 1-2.1 2.2-5.1 3.1-5.1 1.5 0-.4.7-1.8 1.6-3 .8-1.2 1.1-2.2.6-2.2-.5 0-1.4 1.1-2 2.5z"/><path d="M158 227c-1.2 2.2.2 6 2.2 6 .7 0 .7-.4 0-1.3-.6-.7-.9-2.5-.6-4 .5-3.2-.1-3.5-1.6-.7z"/></svg>